<?xml version="1.0" standalone="no"?>
<!DOCTYPE svg PUBLIC "-//W3C//DTD SVG 20010904//EN"
 "http://www.w3.org/TR/2001/REC-SVG-20010904/DTD/svg10.dtd">
<svg version="1.0" xmlns="http://www.w3.org/2000/svg"
 width="599.000000pt" height="548.000000pt" viewBox="0 0 599.000000 548.000000"
 preserveAspectRatio="xMidYMid meet">

<g transform="translate(0.000000,548.000000) scale(0.100000,-0.100000)"
fill="#000000" stroke="none">
<path d="M2760 5094 c-19 -2 -78 -9 -130 -15 -824 -92 -1568 -605 -1951 -1344
-126 -242 -215 -519 -255 -790 -22 -148 -25 -504 -5 -645 103 -751 514 -1390
1153 -1796 535 -340 1205 -467 1844 -349 235 44 431 109 659 220 689 337 1196
979 1348 1710 43 206 52 298 51 530 -1 435 -91 788 -297 1169 -116 215 -248
390 -436 576 -386 383 -877 629 -1418 710 -131 20 -474 35 -563 24z m534 -69
c235 -37 395 -80 596 -162 736 -298 1281 -924 1469 -1684 53 -214 65 -329 65
-584 0 -192 -4 -252 -23 -364 -86 -505 -300 -933 -654 -1307 -241 -255 -599
-487 -942 -612 -138 -50 -364 -106 -520 -129 -169 -25 -535 -24 -700 1 -369
56 -736 195 -1028 389 -167 112 -259 188 -402 331 -786 790 -929 2010 -348
2960 342 557 894 956 1543 1115 99 25 256 50 405 65 83 9 444 -4 539 -19z"/>
<path d="M1550 4340 c-8 -5 -29 -10 -46 -10 -29 0 -114 -46 -128 -69 -4 -6
-19 -11 -33 -11 -20 0 -53 -27 -136 -107 -60 -60 -119 -124 -132 -143 -12 -19
-95 -108 -184 -198 -152 -153 -161 -164 -161 -201 0 -82 57 -154 160 -205 l55
-27 250 4 c138 2 266 7 285 11 34 7 125 49 185 86 17 10 44 19 61 19 19 1 34
7 38 16 4 11 22 15 74 15 38 0 73 5 80 12 8 8 15 8 28 -3 13 -11 18 -11 21 -1
4 9 52 12 196 12 l191 0 -70 -72 c-39 -40 -79 -86 -89 -103 -10 -16 -26 -35
-35 -42 -9 -6 -24 -31 -34 -55 -10 -24 -22 -50 -27 -58 -5 -8 -16 -29 -24 -47
-9 -17 -23 -34 -31 -37 -8 -3 -14 -17 -14 -32 0 -16 -13 -41 -35 -65 -19 -22
-35 -44 -35 -49 0 -5 -10 -21 -21 -34 -22 -26 -41 -56 -58 -92 -5 -12 -22 -37
-38 -55 -29 -35 -41 -54 -69 -103 -9 -16 -27 -40 -40 -53 -13 -13 -24 -30 -24
-37 0 -7 -11 -23 -25 -36 -14 -13 -25 -32 -25 -42 0 -10 -4 -18 -8 -18 -9 0
-42 -69 -42 -87 0 -6 -7 -13 -15 -17 -8 -3 -15 -18 -15 -33 -1 -15 -9 -44 -20
-63 -10 -19 -26 -51 -35 -70 -8 -19 -34 -48 -57 -65 -22 -16 -46 -44 -53 -60
-8 -17 -23 -39 -34 -49 -12 -11 -21 -29 -21 -41 0 -13 -7 -25 -15 -29 -9 -3
-15 -18 -15 -35 0 -17 -6 -31 -15 -35 -9 -3 -22 -20 -30 -38 -7 -18 -32 -51
-55 -73 -23 -22 -52 -56 -65 -75 -12 -19 -41 -54 -64 -77 -22 -23 -41 -48 -41
-55 0 -8 -11 -25 -25 -38 -14 -13 -25 -28 -25 -33 0 -5 -11 -22 -25 -39 -14
-16 -25 -35 -25 -42 0 -7 -11 -23 -25 -36 -14 -13 -25 -33 -25 -46 0 -12 -7
-24 -15 -28 -9 -3 -15 -18 -15 -39 0 -25 9 -42 38 -70 21 -20 44 -37 52 -37 8
0 26 -12 39 -25 13 -15 34 -25 50 -25 15 0 34 -8 42 -18 44 -48 99 -82 133
-82 13 0 46 -25 86 -65 l64 -65 68 0 c56 0 75 5 113 27 25 16 45 34 45 42 0
19 181 201 201 201 8 0 26 11 39 25 13 14 31 25 41 25 9 0 19 7 23 15 3 8 14
15 24 15 10 0 29 11 42 25 13 14 29 25 35 25 15 0 295 279 295 294 0 6 34 45
75 86 41 41 75 80 75 86 0 23 34 77 51 81 11 3 19 11 19 18 0 7 7 18 15 25 8
7 15 25 15 41 0 15 5 31 10 34 6 3 10 19 10 34 0 16 7 34 15 41 8 7 15 21 15
31 0 10 5 21 10 24 6 3 10 17 10 31 0 15 6 24 15 24 10 0 15 10 15 29 0 17 5
33 10 36 6 3 10 15 10 26 0 11 7 22 15 25 8 4 15 15 15 26 0 14 5 18 16 14 9
-3 22 -6 29 -6 7 0 31 -18 52 -41 21 -22 68 -71 106 -108 37 -37 67 -75 67
-83 0 -8 9 -23 20 -33 39 -35 50 -74 50 -175 0 -75 4 -100 15 -110 17 -14 20
-61 4 -77 -12 -12 18 -72 57 -114 23 -24 24 -30 24 -176 0 -129 -3 -158 -20
-198 -11 -26 -20 -61 -20 -79 0 -19 -8 -40 -18 -49 -24 -22 -19 -110 7 -105 9
2 20 13 26 26 5 12 15 22 21 22 6 0 17 7 24 14 25 32 147 76 206 76 22 0 49 7
60 15 10 8 33 15 51 15 17 0 33 6 36 13 3 9 9 9 26 -1 11 -6 27 -12 34 -12 19
0 59 -44 55 -61 -2 -9 8 -15 29 -17 24 -2 39 4 62 26 27 25 31 36 31 79 0 33
-5 55 -15 63 -8 7 -15 18 -15 25 0 6 -22 36 -50 65 -27 28 -54 68 -61 89 -7
20 -25 48 -40 64 l-29 27 45 0 c24 0 47 -4 50 -10 4 -6 65 -10 151 -10 119 0
146 -3 150 -15 4 -8 17 -15 30 -15 17 0 24 -6 24 -19 0 -10 7 -24 15 -31 8 -7
15 -20 15 -29 0 -10 11 -28 24 -40 14 -13 42 -57 63 -98 24 -48 60 -97 97
-135 51 -50 60 -64 60 -96 1 -32 4 -37 27 -40 15 -2 39 -16 55 -33 26 -27 54
-39 54 -21 -1 4 -21 29 -45 57 -47 51 -51 68 -19 73 10 2 30 14 44 25 33 29
66 47 85 47 8 0 15 7 15 15 0 11 11 15 39 15 22 0 43 4 46 10 3 5 37 10 76 10
38 0 69 4 69 10 0 5 13 7 30 4 19 -4 30 -2 30 5 0 6 19 11 46 11 70 0 51 24
-23 30 -34 3 -63 7 -65 10 -2 3 -9 27 -16 53 -7 27 -22 63 -35 80 -32 46 -45
68 -61 105 -8 18 -22 35 -31 38 -8 3 -15 14 -15 23 0 10 -11 28 -25 41 -14 13
-25 30 -25 37 0 18 -106 123 -123 123 -7 0 -35 23 -62 51 -64 64 -180 144
-225 154 -64 14 -243 17 -280 5 -19 -6 -66 -10 -105 -8 -66 3 -68 4 -41 16 16
7 40 21 55 30 36 25 149 70 191 76 88 13 131 26 206 65 45 22 112 52 150 67
102 38 143 65 217 144 l67 70 0 109 c0 92 -3 110 -18 124 -10 10 -23 17 -28
17 -5 0 -32 23 -59 50 -27 28 -57 50 -67 50 -9 0 -19 4 -23 9 -13 22 -121 71
-155 71 -45 0 -184 53 -222 85 -16 14 -33 25 -37 25 -5 0 -24 13 -42 30 -26
23 -44 30 -77 30 -27 0 -60 9 -88 25 -25 14 -55 25 -68 25 -13 0 -29 7 -36 15
-7 8 -25 15 -41 15 -15 0 -31 5 -34 10 -4 6 -57 10 -125 10 -68 0 -121 4 -125
10 -3 6 -33 10 -65 10 -32 0 -62 -4 -65 -10 -3 -5 -18 -10 -33 -10 -15 0 -36
-7 -46 -15 -25 -19 -76 -21 -58 -3 7 7 12 24 12 39 0 15 7 32 15 39 8 7 15 21
15 31 0 10 5 21 10 24 6 3 10 20 10 36 0 17 6 32 15 35 8 4 15 14 15 24 0 11
5 22 10 25 6 3 10 24 10 46 0 28 4 39 15 39 9 0 15 9 15 25 0 14 5 25 10 25 6
0 10 13 10 30 0 16 6 33 14 37 8 4 15 17 17 28 3 16 13 21 53 23 27 2 54 -2
59 -7 6 -6 23 -11 38 -11 15 0 29 -7 33 -15 3 -8 10 -15 16 -15 5 0 10 7 10
15 0 17 45 21 55 5 3 -5 20 -10 36 -10 17 0 32 -6 35 -15 4 -10 19 -15 43 -15
20 0 43 -6 50 -12 11 -10 14 -10 18 0 3 8 30 12 88 12 46 0 87 5 90 10 4 6
137 10 366 10 312 0 359 2 359 15 0 10 10 15 30 15 27 0 42 5 90 31 8 5 30 16
48 25 17 9 32 22 32 28 0 7 11 18 24 25 13 7 29 25 36 40 7 14 19 38 26 53 19
36 18 128 -2 169 -18 37 -61 78 -82 79 -7 0 -17 11 -22 25 -5 14 -16 25 -23
25 -8 0 -22 9 -32 20 -10 11 -38 29 -64 41 -25 12 -57 32 -71 44 -14 13 -43
28 -65 35 -22 7 -53 19 -70 27 -44 22 -304 5 -335 -22 -15 -12 -46 -22 -107
-32 -18 -3 -38 -11 -44 -19 -17 -21 -37 -17 -41 9 -4 31 -22 26 -28 -9 l-5
-29 -118 -3 -117 -3 0 25 c0 32 -20 44 -27 17 -5 -22 -9 -22 -172 -18 -168 4
-226 11 -249 30 -13 10 -69 23 -147 34 -22 3 -46 10 -54 17 -8 6 -50 14 -95
18 -135 12 -175 19 -187 34 -6 8 -23 14 -38 14 -15 0 -32 5 -38 11 -13 13 -93
8 -93 -6 0 -5 17 -11 37 -13 21 -2 42 -8 48 -13 5 -5 21 -9 35 -9 35 0 44 -10
22 -26 -24 -19 -39 -17 -71 7 -26 19 -42 21 -162 21 -74 0 -139 5 -146 10 -7
5 -14 5 -18 -2 -9 -15 -87 -12 -111 4 -23 17 -109 25 -323 32 -115 4 -157 9
-168 20 -17 16 -139 20 -163 4z m151 -37 c13 -16 12 -17 -3 -4 -10 7 -18 15
-18 17 0 8 8 3 21 -13z m-281 -47 c0 -2 -8 -10 -17 -17 -16 -13 -17 -12 -4 4
13 16 21 21 21 13z m620 -9 c0 -2 -12 -14 -27 -28 l-28 -24 24 28 c23 25 31
32 31 24z m438 -16 c41 -21 70 -30 110 -34 23 -3 42 -3 42 -1 0 2 -19 12 -42
23 l-43 20 37 1 c27 0 40 -5 48 -20 8 -15 21 -20 55 -20 25 0 45 5 45 10 0 6
7 10 15 10 8 0 15 5 15 10 0 6 13 10 29 10 17 0 33 -4 36 -10 3 -5 41 -10 84
-10 55 0 82 -4 90 -14 6 -7 35 -16 64 -20 84 -9 121 -18 137 -31 23 -20 81
-27 268 -32 l172 -4 0 -29 c0 -16 -4 -32 -10 -35 -5 -3 -10 -24 -10 -46 0 -21
-4 -39 -9 -39 -14 0 -41 -59 -41 -90 0 -16 -7 -30 -15 -34 -9 -3 -15 -18 -15
-35 0 -16 -4 -33 -10 -36 -5 -3 -10 -19 -10 -35 0 -16 -4 -32 -10 -35 -9 -6
-31 -50 -44 -89 -5 -15 -13 -17 -49 -12 -144 23 -167 19 -188 -29 -5 -11 -13
-27 -17 -35 -23 -40 -32 -61 -32 -74 0 -8 -7 -16 -15 -20 -10 -3 -15 -19 -15
-44 0 -38 -22 -96 -41 -107 -5 -4 -9 -17 -9 -29 0 -28 -25 -92 -40 -101 -5 -3
-10 -18 -11 -33 0 -15 -9 -40 -20 -57 -10 -16 -22 -37 -25 -45 -22 -53 -36
-80 -44 -85 -6 -3 -10 -19 -10 -34 0 -44 -16 -51 -116 -51 -51 0 -96 -4 -99
-10 -3 -5 -44 -10 -90 -10 -64 0 -84 -3 -89 -15 -4 -10 -20 -15 -50 -15 -25 0
-48 -4 -51 -10 -3 -5 -37 -10 -75 -10 -51 0 -69 -4 -74 -15 -4 -12 -27 -15
-121 -15 -63 0 -123 -4 -133 -9 -9 -4 -31 -16 -49 -25 -17 -9 -44 -16 -59 -16
-15 0 -35 -6 -43 -14 -9 -7 -38 -20 -64 -29 l-48 -16 6 22 c4 12 15 29 26 39
10 9 19 21 19 27 0 6 5 11 10 11 6 0 10 6 10 13 0 8 11 24 25 37 14 13 25 32
25 42 0 10 7 21 15 24 8 4 15 14 15 23 0 10 11 28 25 41 14 13 25 31 25 40 0
8 16 30 35 49 21 20 35 42 35 57 0 15 6 24 15 24 8 0 15 7 15 15 0 15 16 48
36 75 7 8 15 29 18 46 4 17 18 42 32 55 14 13 35 39 46 59 11 19 56 70 100
113 63 62 84 77 109 77 20 0 29 4 27 13 -4 9 -61 13 -231 15 -140 1 -227 6
-227 12 0 6 5 10 10 10 6 0 10 13 10 29 0 16 7 34 15 41 8 7 15 25 15 39 0 16
10 37 25 51 14 13 25 34 25 47 0 13 5 23 10 23 6 0 10 6 10 13 0 7 11 24 25
39 14 15 25 34 25 41 0 8 7 17 15 21 8 3 15 16 15 29 0 34 24 89 49 111 12 11
21 27 21 38 0 15 5 17 25 12 23 -6 25 -4 25 30 0 20 5 36 10 36 6 0 10 11 10
25 0 24 3 25 60 25 33 0 68 -4 78 -9z m-1148 -14 c0 -2 -10 -12 -22 -23 l-23
-19 19 23 c18 21 26 27 26 19z m3122 -14 c6 -7 19 -13 30 -13 13 0 17 -4 12
-12 -5 -9 -3 -9 9 1 14 11 18 11 23 -3 4 -9 14 -16 24 -14 9 2 17 -1 18 -6 0
-5 19 -18 42 -28 22 -11 43 -25 46 -32 3 -8 13 -12 22 -9 11 2 35 -15 67 -49
28 -29 55 -53 60 -53 18 -1 35 -16 29 -26 -3 -5 -2 -8 3 -7 4 2 9 -1 11 -7 2
-5 11 -19 20 -29 13 -15 13 -17 2 -11 -12 7 -13 6 -4 -6 13 -16 13 -57 0 -78
-6 -10 -5 -12 2 -7 7 4 12 2 12 -3 0 -6 -5 -11 -10 -11 -6 0 -9 -3 -9 -7 1 -5
1 -15 0 -23 -1 -13 -2 -13 -12 0 -8 12 -9 10 -7 -11 3 -32 -24 -62 -48 -52
-11 4 -15 3 -10 -5 3 -6 2 -13 -4 -17 -6 -4 -8 -11 -5 -16 4 -5 -5 -13 -18
-18 -14 -6 -28 -15 -32 -21 -3 -5 -10 -8 -15 -5 -5 3 -11 1 -15 -5 -4 -6 -11
-8 -16 -5 -5 4 -9 2 -9 -2 0 -5 -17 -10 -37 -11 -21 -2 -45 -9 -53 -17 -13
-12 -80 -15 -355 -19 -187 -3 -371 -6 -410 -8 l-70 -3 -3 83 c-2 52 1 82 8 82
5 0 10 19 10 43 0 32 6 48 23 62 12 11 25 19 29 17 4 -1 4 6 1 15 -4 10 -2 14
5 9 14 -9 23 7 24 44 1 17 7 35 13 40 7 6 11 20 8 31 -5 19 29 64 40 53 2 -3
7 2 10 10 4 11 1 13 -11 9 -9 -4 -1 9 18 27 19 19 41 35 49 36 8 2 18 10 23
18 5 9 22 16 37 16 15 0 31 3 35 7 10 11 48 14 42 4 -3 -5 5 -4 18 2 14 7 24
16 23 22 -1 5 24 12 55 15 31 3 60 9 64 13 14 13 174 4 186 -10z m-3222 -86
c0 -2 -10 -12 -22 -23 l-23 -19 19 23 c18 21 26 27 26 19z m670 0 c0 -2 -10
-12 -22 -23 l-23 -19 19 23 c18 21 26 27 26 19z m1976 -31 c-2 -6 -9 -10 -16
-8 -8 2 -10 -3 -6 -14 4 -10 -4 -28 -19 -46 -17 -20 -22 -34 -16 -42 11 -14
-20 -82 -37 -79 -6 2 -9 -6 -7 -17 2 -12 -7 -28 -23 -42 -29 -25 -29 -25 -40
-178 l-7 -105 -34 -3 c-25 -3 -31 0 -25 10 6 10 5 11 -8 1 -12 -11 -18 -10
-32 6 -9 10 -27 17 -39 16 -13 -2 -34 5 -46 15 -23 16 -23 18 -6 43 9 15 13
27 9 27 -5 0 -1 5 9 11 9 5 17 20 17 32 0 32 26 101 39 105 6 2 11 21 11 42 0
21 7 45 15 53 8 8 11 17 8 21 -4 3 1 6 10 6 10 0 17 7 17 16 0 9 5 12 13 8 7
-5 6 0 -3 11 -12 15 -13 19 -1 23 11 4 11 6 0 12 -10 7 -10 12 -1 23 7 8 13
26 14 41 l2 27 103 -2 c68 -2 102 -6 99 -13z m-2038 -36 c-7 -10 -14 -17 -17
-15 -4 4 18 35 25 35 2 0 -1 -9 -8 -20z m30 -20 c-7 -10 -14 -17 -17 -15 -4 4
18 35 25 35 2 0 -1 -9 -8 -20z m-755 -35 c-3 -9 -8 -14 -10 -11 -3 3 -2 9 2
15 9 16 15 13 8 -4z m727 -18 c0 -2 -12 -14 -27 -28 l-28 -24 24 28 c23 25 31
32 31 24z m-750 -30 c0 -1 -75 -76 -167 -167 l-168 -165 165 168 c153 155 170
172 170 164z m493 -352 c-3 -9 -8 -14 -10 -11 -3 3 -2 9 2 15 9 16 15 13 8 -4z
m177 -49 c0 -2 -8 -10 -17 -17 -16 -13 -17 -12 -4 4 13 16 21 21 21 13z m1400
-480 c0 -2 -8 -10 -17 -17 -16 -13 -17 -12 -4 4 13 16 21 21 21 13z m611 -83
c13 -16 12 -17 -3 -4 -17 13 -22 21 -14 21 2 0 10 -8 17 -17z m139 -38 c13
-14 21 -25 18 -25 -2 0 -15 11 -28 25 -13 14 -21 25 -18 25 2 0 15 -11 28 -25z
m81 -52 c13 -17 13 -17 -6 -3 -11 8 -22 16 -24 17 -2 2 0 3 6 3 6 0 17 -8 24
-17z m-1092 -75 c0 -7 -9 -26 -20 -43 -10 -16 -21 -37 -25 -45 -3 -8 -10 -23
-15 -32 -5 -10 -9 -28 -9 -40 0 -12 -7 -30 -17 -40 -14 -15 -32 -18 -134 -18
-86 0 -120 -4 -126 -13 -4 -7 -27 -19 -51 -27 -23 -7 -47 -19 -53 -27 -7 -8
-34 -13 -75 -13 -34 0 -66 -4 -69 -10 -3 -5 -31 -10 -61 -10 -31 0 -65 -5 -77
-12 -12 -6 -62 -16 -112 -20 -207 -20 -231 -23 -243 -31 -7 -5 -38 -13 -70
-17 -31 -5 -67 -12 -79 -16 -17 -4 -23 -2 -23 8 0 18 28 76 41 83 5 4 9 15 9
25 0 10 11 27 25 38 14 11 25 27 25 36 0 9 8 16 18 16 27 0 145 41 163 56 8 8
25 14 37 14 19 0 67 17 114 41 10 5 70 9 133 9 94 0 117 3 121 15 5 11 23 15
74 15 38 0 72 5 75 10 3 6 26 10 51 10 30 0 46 5 50 15 5 12 24 15 83 15 42 0
83 5 91 10 23 15 150 13 149 -2z m1467 -80 l19 -23 -25 20 c-14 11 -27 21 -29
22 -2 2 0 3 6 3 5 0 18 -10 29 -22z m69 -38 c10 -11 16 -20 13 -20 -3 0 -13 9
-23 20 -10 11 -16 20 -13 20 3 0 13 -9 23 -20z m50 -50 c10 -11 16 -20 13 -20
-3 0 -13 9 -23 20 -10 11 -16 20 -13 20 3 0 13 -9 23 -20z m-849 -32 l19 -23
-25 20 c-14 11 -27 21 -29 22 -2 2 0 3 6 3 5 0 18 -10 29 -22z m-17 -30 c18
-16 39 -28 47 -28 8 0 14 -7 14 -15 0 -9 11 -20 24 -24 13 -5 40 -27 60 -48
48 -51 50 -98 5 -142 -17 -17 -35 -31 -40 -31 -6 0 -34 -23 -64 -51 -48 -45
-57 -50 -92 -47 -37 3 -38 5 -46 48 -4 25 -10 73 -14 107 -3 35 -12 68 -19 74
-9 7 -14 32 -14 65 0 29 -4 55 -9 58 -5 3 -14 19 -19 36 l-11 30 73 -3 c62 -2
77 -6 105 -29z m86 -8 c3 -6 -1 -7 -9 -4 -18 7 -21 14 -7 14 6 0 13 -4 16 -10z
m-938 -28 c-10 -10 -17 -30 -17 -44 0 -13 -11 -35 -25 -48 -14 -13 -25 -31
-25 -41 0 -9 -10 -19 -22 -22 -18 -5 -19 -8 -8 -21 11 -14 3 -16 -69 -16 -78
0 -82 -1 -120 -35 -38 -34 -40 -35 -125 -35 -68 0 -88 -3 -92 -15 -5 -11 -22
-15 -64 -15 -33 0 -62 -4 -65 -10 -3 -5 -21 -10 -39 -10 -17 0 -37 -5 -44 -12
-6 -6 -35 -15 -64 -20 -29 -5 -74 -12 -100 -16 -25 -5 -52 -13 -60 -19 -7 -6
-56 -14 -108 -17 -52 -3 -129 -7 -170 -10 -41 -3 -67 -3 -57 0 9 3 17 10 17
15 0 5 7 9 15 9 8 0 15 9 15 19 0 11 5 23 10 26 6 3 10 15 10 26 0 11 7 22 15
25 8 4 15 14 15 24 0 11 5 22 10 25 6 3 10 16 10 29 0 20 8 23 78 34 42 7 91
18 107 23 29 11 108 22 270 38 44 4 93 13 108 19 16 7 52 12 82 12 30 0 57 5
60 10 3 6 37 10 75 10 51 0 69 4 74 15 3 8 14 15 25 15 11 0 23 5 26 10 3 6
19 10 36 10 19 0 29 5 29 15 0 12 18 15 102 15 97 0 100 -1 85 -18z m1043 -77
c13 -14 21 -25 18 -25 -2 0 -15 11 -28 25 -13 14 -21 25 -18 25 2 0 15 -11 28
-25z m-339 -62 c13 -16 12 -17 -3 -4 -17 13 -22 21 -14 21 2 0 10 -8 17 -17z
m-737 -39 c3 -8 2 -12 -4 -9 -6 3 -10 10 -10 16 0 14 7 11 14 -7z m-54 -53 c0
-5 -7 -14 -15 -21 -8 -7 -15 -21 -15 -31 0 -10 -4 -21 -10 -24 -5 -3 -10 -14
-10 -25 0 -10 -7 -20 -15 -24 -8 -3 -15 -17 -15 -30 0 -28 -18 -74 -37 -94 -7
-7 -13 -26 -13 -42 0 -16 -4 -32 -10 -35 -5 -3 -10 -19 -10 -35 0 -19 -10 -37
-35 -59 -19 -16 -43 -50 -52 -73 -10 -26 -47 -73 -90 -117 -40 -40 -73 -78
-73 -85 0 -14 -261 -276 -276 -276 -6 0 -21 -11 -34 -25 -13 -14 -31 -25 -41
-25 -9 0 -22 -7 -29 -15 -7 -8 -18 -15 -24 -15 -7 0 -23 -11 -36 -25 -13 -14
-30 -25 -38 -25 -18 0 -222 -199 -222 -216 0 -26 -65 -54 -126 -54 l-59 0 -64
65 c-48 49 -71 65 -91 65 -17 0 -38 10 -51 25 -13 13 -29 25 -35 25 -6 0 -21
11 -34 25 -14 14 -35 25 -50 25 -15 0 -36 11 -50 25 -13 14 -31 25 -40 25 -18
0 -70 56 -70 76 0 8 7 14 15 14 10 0 15 10 15 34 0 25 7 40 25 54 14 11 25 26
25 34 0 8 11 25 25 38 14 13 25 31 25 41 0 10 11 26 25 37 14 11 25 26 25 34
0 7 23 36 50 63 28 27 50 56 50 65 0 8 27 41 60 74 33 32 60 64 60 70 0 7 11
23 25 36 14 13 25 34 25 47 0 14 6 23 15 23 10 0 15 10 15 34 0 25 7 40 25 54
14 11 25 27 25 35 0 16 7 16 295 33 60 3 106 11 115 19 8 7 33 15 55 18 68 10
139 24 170 35 76 26 105 32 158 32 44 0 57 3 57 15 0 12 16 15 88 15 88 0 88
0 122 35 33 34 37 35 107 35 40 0 73 -4 73 -9z m1130 -4 c0 -2 -12 -14 -27
-28 l-28 -24 24 28 c23 25 31 32 31 24z m-885 -107 c49 -49 87 -90 85 -90 -3
0 -46 41 -95 90 -49 50 -87 90 -85 90 3 0 46 -40 95 -90z m805 57 c0 -2 -10
-12 -22 -23 l-23 -19 19 23 c18 21 26 27 26 19z m-50 -50 c0 -2 -10 -12 -22
-23 l-23 -19 19 23 c18 21 26 27 26 19z m511 -354 c13 -16 12 -17 -3 -4 -17
13 -22 21 -14 21 2 0 10 -8 17 -17z m94 -63 c10 -11 16 -20 13 -20 -3 0 -13 9
-23 20 -10 11 -16 20 -13 20 3 0 13 -9 23 -20z m-1184 -17 c13 -16 12 -17 -3
-4 -17 13 -22 21 -14 21 2 0 10 -8 17 -17z m1234 -33 c10 -11 16 -20 13 -20
-3 0 -13 9 -23 20 -10 11 -16 20 -13 20 3 0 13 -9 23 -20z m120 -100 c27 -27
47 -50 44 -50 -3 0 -27 23 -54 50 -27 28 -47 50 -44 50 3 0 27 -22 54 -50z
m-1245 16 c0 -2 -8 -10 -17 -17 -16 -13 -17 -12 -4 4 13 16 21 21 21 13z
m1320 -111 c13 -14 21 -25 18 -25 -2 0 -15 11 -28 25 -13 14 -21 25 -18 25 2
0 15 -11 28 -25z m-559 -62 c13 -16 12 -17 -3 -4 -17 13 -22 21 -14 21 2 0 10
-8 17 -17z m609 -18 c13 -14 21 -25 18 -25 -2 0 -15 11 -28 25 -13 14 -21 25
-18 25 2 0 15 -11 28 -25z m-991 -68 c-2 -2 -17 12 -33 32 l-30 36 34 -32 c19
-18 32 -34 29 -36z m462 6 c13 -16 12 -17 -3 -4 -17 13 -22 21 -14 21 2 0 10
-8 17 -17z m570 0 c13 -16 12 -17 -3 -4 -17 13 -22 21 -14 21 2 0 10 -8 17
-17z m39 -68 c13 -14 21 -25 18 -25 -2 0 -15 11 -28 25 -13 14 -21 25 -18 25
2 0 15 -11 28 -25z m-1005 -45 c27 -27 47 -50 44 -50 -3 0 -27 23 -54 50 -27
28 -47 50 -44 50 3 0 27 -22 54 -50z m456 23 c13 -16 12 -17 -3 -4 -10 7 -18
15 -18 17 0 8 8 3 21 -13z m39 -73 c6 -11 8 -20 6 -20 -3 0 -10 9 -16 20 -6
11 -8 20 -6 20 3 0 10 -9 16 -20z m491 3 c13 -16 12 -17 -3 -4 -10 7 -18 15
-18 17 0 8 8 3 21 -13z m59 7 c0 -5 -2 -10 -4 -10 -3 0 -8 5 -11 10 -3 6 -1
10 4 10 6 0 11 -4 11 -10z m-979 -47 c13 -16 12 -17 -3 -4 -17 13 -22 21 -14
21 2 0 10 -8 17 -17z m-461 -17 c0 -2 -8 -10 -17 -17 -16 -13 -17 -12 -4 4 13
16 21 21 21 13z m980 -71 l65 -70 -67 65 c-38 35 -68 69 -68 74 0 5 1 7 3 5 1
-3 31 -36 67 -74z m-1030 -9 c0 -2 -8 -10 -17 -17 -16 -13 -17 -12 -4 4 13 16
21 21 21 13z m1190 0 c0 -2 -8 -10 -17 -17 -16 -13 -17 -12 -4 4 13 16 21 21
21 13z"/>
</g>
</svg>
